#!OML:ASF E:\Style4\Style4.ASF
:FULLY-SPECIFIED
:DEGREES
1558
root 0.274978 17.39 -2.93589 3.48767 -1.72842 7.99457
lowerback 13.7367 4.06147 4.46128
upperback 7.81729 5.8577 2.69608
thorax 0.734446 3.01182 -0.419492
lowerneck 2.91518 -7.95073 -6.21814
upperneck -0.646885 -10.8121 -0.0441729
head -0.345435 -5.38622 1.09114
rclavicle 6.91771e-014 3.81667e-014
rhumerus -350.161 9.37462 -427.803
rradius 75.8769
rwrist -4.56657
rhand -20 15.1962
rfingers 7.12502
rthumb 6.33978 -14.6889
lclavicle 6.91771e-014 3.81667e-014
lhumerus -18.6166 8.25271 31.1242
lradius 93.695
lwrist -5.10961
lhand -21.8886 29.0217
lfingers 7.12502
lthumb 4.51638 58.9536
rfemur -28.7068 -0.358173 7.77517
rtibia 45.7137
rfoot -19.4046 -10.3786
rtoes -12.4565
lfemur -21.7367 4.71491 -29.6182
ltibia 37.1369
lfoot -19.3098 6.64793
ltoes -9.40247
1559
root 0.286177 17.39 -2.92494 3.40766 -2.21388 7.87086
lowerback 13.667 3.8904 4.5467
upperback 7.78382 5.63837 2.72119
thorax 0.73391 2.90304 -0.411121
lowerneck 2.87058 -7.78273 -6.17213
upperneck -0.510441 -10.5836 -0.269115
head -0.317597 -5.27295 1.00912
rclavicle 2.54444e-014 -5.40694e-014
rhumerus -351.059 9.78772 -428.831
rradius 76.2725
rwrist -5.73051
rhand -20.607 15.5528
rfingers 7.12502
rthumb 5.75375 -14.3491
lclavicle 2.54444e-014 -5.40694e-014
lhumerus -17.934 8.49848 31.1665
lradius 93.6719
lwrist -5.17636
lhand -21.8423 29.005
lfingers 7.12502
lthumb 4.56103 58.9359
rfemur -28.7054 -0.313211 7.90647
rtibia 45.6266
rfoot -19.3006 -10.0648
rtoes -12.831
lfemur -21.6736 4.7328 -29.513
ltibia 37.2476
lfoot -19.6399 7.24635
ltoes -10.3136
1560
root 0.291828 17.391 -2.91346 3.30567 -2.83877 7.65075
lowerback 13.6393 3.78453 4.61872
upperback 7.75868 5.50476 2.77415
thorax 0.7189 2.83552 -0.379581
lowerneck 2.74012 -7.66095 -6.13853
upperneck -0.319725 -10.4087 -0.452028
head -0.253847 -5.1887 0.936283
rclavicle -4.6118e-014 -6.36111e-015
rhumerus -352.005 10.093 -429.836
rradius 76.6856
rwrist -6.86896
rhand -21.1176 15.6927
rfingers 7.12502
rthumb 5.26081 -14.222
lclavicle -4.6118e-014 -6.36111e-015
lhumerus -17.4854 8.69853 31.2764
lradius 93.9448
lwrist -5.09434
lhand -21.7426 29.1699
lfingers 7.12502
lthumb 4.65731 59.0987
rfemur -28.7058 -0.102496 8.1542
rtibia 45.5324
rfoot -19.1701 -9.75709
rtoes -13.0761
lfemur -21.5939 4.84465 -29.2874
ltibia 37.3826
lfoot -19.9458 7.74323
ltoes -10.5296
1561
root 0.292991 17.391 -2.90378 3.19115 -3.48879 7.52116
lowerback 13.6658 3.72874 4.58133
upperback 7.72249 5.42801 2.76068
thorax 0.660976 2.79361 -0.368106
lowerneck 2.63108 -7.53345 -6.03442
upperneck -0.176761 -10.2261 -0.586861
head -0.209333 -5.10009 0.869836
rclavicle -6.44062e-014 -3.49861e-014
rhumerus -353.013 10.1076 -430.869
rradius 77.1118
rwrist -7.74998
rhand -21.3126 15.8278
rfingers 7.12502
rthumb 5.07256 -14.0915
lclavicle -6.44062e-014 -3.49861e-014
lhumerus -16.6937 8.82659 31.4316
lradius 94.0225
lwrist -4.82106
lhand -21.6682 29.1274
lfingers 7.12502
lthumb 4.72914 59.0546
rfemur -28.7283 0.143225 8.31526
rtibia 45.4615
rfoot -19.1044 -9.43003
rtoes -13.2351
lfemur -21.5171 5.03606 -29.1453
ltibia 37.5301
lfoot -20.1123 8.13262
ltoes -10.451
1562
root 0.293299 17.3893 -2.89492 3.07323 -4.09242 7.48913
lowerback 13.7085 3.67445 4.45835
upperback 7.67695 5.34506 2.71696
thorax 0.57876 2.74633 -0.341829
lowerneck 2.76614 -7.36266 -6.07509
upperneck -0.283249 -10.0115 -0.523813
head -0.265045 -4.9904 0.905162
rclavicle 2.38542e-014 -1.27222e-014
rhumerus -354.072 9.96357 -431.85
rradius 77.5879
rwrist -8.60497
rhand -21.3241 16.0234
rfingers 7.12502
rthumb 5.0614 -13.8961
lclavicle 2.38542e-014 -1.27222e-014
lhumerus -15.6604 8.87011 31.6639
lradius 93.8799
lwrist -4.69323
lhand -21.801 28.8571
lfingers 7.12502
lthumb 4.60096 58.7871
rfemur -28.7443 0.360949 8.36861
rtibia 45.399
rfoot -19.116 -9.10994
rtoes -13.5502
lfemur -21.4342 5.20655 -29.1065
ltibia 37.6742
lfoot -20.3111 8.52701
ltoes -10.5698
1563
root 0.292697 17.3881 -2.88421 2.95091 -4.67174 7.349
lowerback 13.7053 3.59158 4.40123
upperback 7.67325 5.2277 2.7296
thorax 0.565326 2.68444 -0.28351
lowerneck 3.06622 -7.13586 -6.32084
upperneck -0.629606 -9.74438 -0.243078
head -0.403809 -4.85024 1.05427
rclavicle 1.19271e-014 -3.18055e-014
rhumerus -355.073 9.86222 -432.668
rradius 78.0847
rwrist -9.51593
rhand -21.3186 16.1488
rfingers 7.12502
rthumb 5.06674 -13.7706
lclavicle 1.19271e-014 -3.18055e-014
lhumerus -14.698 8.99538 31.954
lradius 93.7776
lwrist -4.78589
lhand -21.7418 28.5008
lfingers 7.12502
lthumb 4.65811 58.4296
rfemur -28.7216 0.561685 8.5554
rtibia 45.3383
rfoot -19.1175 -8.84238
rtoes -13.9297
lfemur -21.2955 5.33679 -28.9367
ltibia 37.8036
lfoot -20.5913 8.78955
ltoes -10.1514
